
<svg width="32" height="32" viewBox="0 0 32 32" fill="none" xmlns="http://www.w3.org/2000/svg">
  <rect width="32" height="32" rx="16" fill="#D946EF" />
  <path d="M10 16C10 12.6863 12.6863 10 16 10C19.3137 10 22 12.6863 22 16C22 19.3137 19.3137 22 16 22C12.6863 22 10 19.3137 10 16Z" fill="white" />
  <path d="M14 13.5C14 12.6716 14.6716 12 15.5 12C16.3284 12 17 12.6716 17 13.5C17 14.3284 16.3284 15 15.5 15C14.6716 15 14 14.3284 14 13.5Z" fill="#D946EF" />
  <path d="M16.5 16C16.5 15.1716 17.1716 14.5 18 14.5C18.8284 14.5 19.5 15.1716 19.5 16C19.5 16.8284 18.8284 17.5 18 17.5C17.1716 17.5 16.5 16.8284 16.5 16Z" fill="#D946EF" />
  <path d="M14 18.5C14 17.6716 14.6716 17 15.5 17C16.3284 17 17 17.6716 17 18.5C17 19.3284 16.3284 20 15.5 20C14.6716 20 14 19.3284 14 18.5Z" fill="#D946EF" />
</svg>
